<svg width="183" height="256" viewBox="0 0 183 256" fill="none" xmlns="http://www.w3.org/2000/svg">
<rect width="182.857" height="256" rx="16" fill="url(#paint0_linear_6_240)"/>
<path d="M20.864 24.728V19.64H29.728V43H24.032V24.728H20.864Z" fill="#1C1D1F"/>
<path d="M91 149.42C90.78 149.42 90.56 149.38 90.34 149.3C90.12 149.22 89.93 149.1 89.77 148.94L88.18 147.47C85.7 145.17 83.55 142.975 81.73 140.885C79.91 138.795 79 136.61 79 134.33C79 132.53 79.605 131.025 80.815 129.815C82.025 128.605 83.52 128 85.3 128C86.32 128 87.33 128.245 88.33 128.735C89.33 129.225 90.22 130.03 91 131.15C91.88 130.03 92.79 129.225 93.73 128.735C94.67 128.245 95.66 128 96.7 128C98.48 128 99.975 128.605 101.185 129.815C102.395 131.025 103 132.53 103 134.33C103 136.61 102.09 138.795 100.27 140.885C98.45 142.975 96.3 145.17 93.82 147.47L92.23 148.94C92.07 149.1 91.88 149.22 91.66 149.3C91.44 149.38 91.22 149.42 91 149.42Z" fill="#1C1D1F"/>
<path d="M91 149.42C90.78 149.42 90.56 149.38 90.34 149.3C90.12 149.22 89.93 149.1 89.77 148.94L88.18 147.47C85.7 145.17 83.55 142.975 81.73 140.885C79.91 138.795 79 136.61 79 134.33C79 132.53 79.605 131.025 80.815 129.815C82.025 128.605 83.52 128 85.3 128C86.32 128 87.33 128.245 88.33 128.735C89.33 129.225 90.22 130.03 91 131.15C91.88 130.03 92.79 129.225 93.73 128.735C94.67 128.245 95.66 128 96.7 128C98.48 128 99.975 128.605 101.185 129.815C102.395 131.025 103 132.53 103 134.33C103 136.61 102.09 138.795 100.27 140.885C98.45 142.975 96.3 145.17 93.82 147.47L92.23 148.94C92.07 149.1 91.88 149.22 91.66 149.3C91.44 149.38 91.22 149.42 91 149.42Z" fill="url(#paint1_linear_6_240)"/>
<defs>
<linearGradient id="paint0_linear_6_240" x1="183" y1="-4.87973e-07" x2="-1.03557e-05" y2="256" gradientUnits="userSpaceOnUse">
<stop stop-color="white"/>
<stop offset="1" stop-color="#E6EFFF"/>
</linearGradient>
<linearGradient id="paint1_linear_6_240" x1="91" y1="128" x2="91" y2="149.42" gradientUnits="userSpaceOnUse">
<stop stop-color="#382F1D"/>
<stop offset="1" stop-color="#382F1D" stop-opacity="0"/>
</linearGradient>
</defs>
</svg>
