<svg width="183" height="256" viewBox="0 0 183 256" fill="none" xmlns="http://www.w3.org/2000/svg">
<rect width="182.857" height="256" rx="16" fill="url(#paint0_linear_6_245)"/>
<path d="M20.864 24.728V19.64H29.728V43H24.032V24.728H20.864ZM32.8312 31C32.8312 27.3307 33.5352 24.44 34.9432 22.328C36.3726 20.216 38.6659 19.16 41.8232 19.16C44.9806 19.16 47.2633 20.216 48.6713 22.328C50.1006 24.44 50.8153 27.3307 50.8153 31C50.8153 34.712 50.1006 37.624 48.6713 39.736C47.2633 41.848 44.9806 42.904 41.8232 42.904C38.6659 42.904 36.3726 41.848 34.9432 39.736C33.5352 37.624 32.8312 34.712 32.8312 31ZM45.4392 31C45.4392 28.8453 45.2046 27.192 44.7353 26.04C44.2659 24.8667 43.2952 24.28 41.8232 24.28C40.3512 24.28 39.3806 24.8667 38.9113 26.04C38.4419 27.192 38.2073 28.8453 38.2073 31C38.2073 32.4507 38.2926 33.656 38.4633 34.616C38.6339 35.5547 38.9753 36.3227 39.4873 36.92C40.0206 37.496 40.7993 37.784 41.8232 37.784C42.8472 37.784 43.6153 37.496 44.1273 36.92C44.6606 36.3227 45.0126 35.5547 45.1833 34.616C45.3539 33.656 45.4392 32.4507 45.4392 31Z" fill="#1C1D1F"/>
<path d="M91 108.42C90.78 108.42 90.56 108.38 90.34 108.3C90.12 108.22 89.93 108.1 89.77 107.94L88.18 106.47C85.7 104.17 83.55 101.975 81.73 99.885C79.91 97.795 79 95.61 79 93.33C79 91.53 79.605 90.025 80.815 88.815C82.025 87.605 83.52 87 85.3 87C86.32 87 87.33 87.245 88.33 87.735C89.33 88.225 90.22 89.03 91 90.15C91.88 89.03 92.79 88.225 93.73 87.735C94.67 87.245 95.66 87 96.7 87C98.48 87 99.975 87.605 101.185 88.815C102.395 90.025 103 91.53 103 93.33C103 95.61 102.09 97.795 100.27 99.885C98.45 101.975 96.3 104.17 93.82 106.47L92.23 107.94C92.07 108.1 91.88 108.22 91.66 108.3C91.44 108.38 91.22 108.42 91 108.42Z" fill="#1C1D1F"/>
<path d="M91 108.42C90.78 108.42 90.56 108.38 90.34 108.3C90.12 108.22 89.93 108.1 89.77 107.94L88.18 106.47C85.7 104.17 83.55 101.975 81.73 99.885C79.91 97.795 79 95.61 79 93.33C79 91.53 79.605 90.025 80.815 88.815C82.025 87.605 83.52 87 85.3 87C86.32 87 87.33 87.245 88.33 87.735C89.33 88.225 90.22 89.03 91 90.15C91.88 89.03 92.79 88.225 93.73 87.735C94.67 87.245 95.66 87 96.7 87C98.48 87 99.975 87.605 101.185 88.815C102.395 90.025 103 91.53 103 93.33C103 95.61 102.09 97.795 100.27 99.885C98.45 101.975 96.3 104.17 93.82 106.47L92.23 107.94C92.07 108.1 91.88 108.22 91.66 108.3C91.44 108.38 91.22 108.42 91 108.42Z" fill="url(#paint1_linear_6_245)"/>
<path d="M91 189.42C90.78 189.42 90.56 189.38 90.34 189.3C90.12 189.22 89.93 189.1 89.77 188.94L88.18 187.47C85.7 185.17 83.55 182.975 81.73 180.885C79.91 178.795 79 176.61 79 174.33C79 172.53 79.605 171.025 80.815 169.815C82.025 168.605 83.52 168 85.3 168C86.32 168 87.33 168.245 88.33 168.735C89.33 169.225 90.22 170.03 91 171.15C91.88 170.03 92.79 169.225 93.73 168.735C94.67 168.245 95.66 168 96.7 168C98.48 168 99.975 168.605 101.185 169.815C102.395 171.025 103 172.53 103 174.33C103 176.61 102.09 178.795 100.27 180.885C98.45 182.975 96.3 185.17 93.82 187.47L92.23 188.94C92.07 189.1 91.88 189.22 91.66 189.3C91.44 189.38 91.22 189.42 91 189.42Z" fill="#1C1D1F"/>
<path d="M91 189.42C90.78 189.42 90.56 189.38 90.34 189.3C90.12 189.22 89.93 189.1 89.77 188.94L88.18 187.47C85.7 185.17 83.55 182.975 81.73 180.885C79.91 178.795 79 176.61 79 174.33C79 172.53 79.605 171.025 80.815 169.815C82.025 168.605 83.52 168 85.3 168C86.32 168 87.33 168.245 88.33 168.735C89.33 169.225 90.22 170.03 91 171.15C91.88 170.03 92.79 169.225 93.73 168.735C94.67 168.245 95.66 168 96.7 168C98.48 168 99.975 168.605 101.185 169.815C102.395 171.025 103 172.53 103 174.33C103 176.61 102.09 178.795 100.27 180.885C98.45 182.975 96.3 185.17 93.82 187.47L92.23 188.94C92.07 189.1 91.88 189.22 91.66 189.3C91.44 189.38 91.22 189.42 91 189.42Z" fill="url(#paint2_linear_6_245)"/>
<path d="M130 88.42C129.78 88.42 129.56 88.38 129.34 88.3C129.12 88.22 128.93 88.1 128.77 87.94L127.18 86.47C124.7 84.17 122.55 81.975 120.73 79.885C118.91 77.795 118 75.61 118 73.33C118 71.53 118.605 70.025 119.815 68.815C121.025 67.605 122.52 67 124.3 67C125.32 67 126.33 67.245 127.33 67.735C128.33 68.225 129.22 69.03 130 70.15C130.88 69.03 131.79 68.225 132.73 67.735C133.67 67.245 134.66 67 135.7 67C137.48 67 138.975 67.605 140.185 68.815C141.395 70.025 142 71.53 142 73.33C142 75.61 141.09 77.795 139.27 79.885C137.45 81.975 135.3 84.17 132.82 86.47L131.23 87.94C131.07 88.1 130.88 88.22 130.66 88.3C130.44 88.38 130.22 88.42 130 88.42Z" fill="#1C1D1F"/>
<path d="M130 88.42C129.78 88.42 129.56 88.38 129.34 88.3C129.12 88.22 128.93 88.1 128.77 87.94L127.18 86.47C124.7 84.17 122.55 81.975 120.73 79.885C118.91 77.795 118 75.61 118 73.33C118 71.53 118.605 70.025 119.815 68.815C121.025 67.605 122.52 67 124.3 67C125.32 67 126.33 67.245 127.33 67.735C128.33 68.225 129.22 69.03 130 70.15C130.88 69.03 131.79 68.225 132.73 67.735C133.67 67.245 134.66 67 135.7 67C137.48 67 138.975 67.605 140.185 68.815C141.395 70.025 142 71.53 142 73.33C142 75.61 141.09 77.795 139.27 79.885C137.45 81.975 135.3 84.17 132.82 86.47L131.23 87.94C131.07 88.1 130.88 88.22 130.66 88.3C130.44 88.38 130.22 88.42 130 88.42Z" fill="url(#paint3_linear_6_245)"/>
<path d="M130 128.84C129.78 128.84 129.56 128.8 129.34 128.72C129.12 128.64 128.93 128.52 128.77 128.36L127.18 126.89C124.7 124.59 122.55 122.395 120.73 120.305C118.91 118.215 118 116.03 118 113.75C118 111.95 118.605 110.445 119.815 109.235C121.025 108.025 122.52 107.42 124.3 107.42C125.32 107.42 126.33 107.665 127.33 108.155C128.33 108.645 129.22 109.45 130 110.57C130.88 109.45 131.79 108.645 132.73 108.155C133.67 107.665 134.66 107.42 135.7 107.42C137.48 107.42 138.975 108.025 140.185 109.235C141.395 110.445 142 111.95 142 113.75C142 116.03 141.09 118.215 139.27 120.305C137.45 122.395 135.3 124.59 132.82 126.89L131.23 128.36C131.07 128.52 130.88 128.64 130.66 128.72C130.44 128.8 130.22 128.84 130 128.84Z" fill="#1C1D1F"/>
<path d="M130 128.84C129.78 128.84 129.56 128.8 129.34 128.72C129.12 128.64 128.93 128.52 128.77 128.36L127.18 126.89C124.7 124.59 122.55 122.395 120.73 120.305C118.91 118.215 118 116.03 118 113.75C118 111.95 118.605 110.445 119.815 109.235C121.025 108.025 122.52 107.42 124.3 107.42C125.32 107.42 126.33 107.665 127.33 108.155C128.33 108.645 129.22 109.45 130 110.57C130.88 109.45 131.79 108.645 132.73 108.155C133.67 107.665 134.66 107.42 135.7 107.42C137.48 107.42 138.975 108.025 140.185 109.235C141.395 110.445 142 111.95 142 113.75C142 116.03 141.09 118.215 139.27 120.305C137.45 122.395 135.3 124.59 132.82 126.89L131.23 128.36C131.07 128.52 130.88 128.64 130.66 128.72C130.44 128.8 130.22 128.84 130 128.84Z" fill="url(#paint4_linear_6_245)"/>
<path d="M130 169.26C129.78 169.26 129.56 169.22 129.34 169.14C129.12 169.06 128.93 168.94 128.77 168.78L127.18 167.31C124.7 165.01 122.55 162.815 120.73 160.725C118.91 158.635 118 156.45 118 154.17C118 152.37 118.605 150.865 119.815 149.655C121.025 148.445 122.52 147.84 124.3 147.84C125.32 147.84 126.33 148.085 127.33 148.575C128.33 149.065 129.22 149.87 130 150.99C130.88 149.87 131.79 149.065 132.73 148.575C133.67 148.085 134.66 147.84 135.7 147.84C137.48 147.84 138.975 148.445 140.185 149.655C141.395 150.865 142 152.37 142 154.17C142 156.45 141.09 158.635 139.27 160.725C137.45 162.815 135.3 165.01 132.82 167.31L131.23 168.78C131.07 168.94 130.88 169.06 130.66 169.14C130.44 169.22 130.22 169.26 130 169.26Z" fill="#1C1D1F"/>
<path d="M130 169.26C129.78 169.26 129.56 169.22 129.34 169.14C129.12 169.06 128.93 168.94 128.77 168.78L127.18 167.31C124.7 165.01 122.55 162.815 120.73 160.725C118.91 158.635 118 156.45 118 154.17C118 152.37 118.605 150.865 119.815 149.655C121.025 148.445 122.52 147.84 124.3 147.84C125.32 147.84 126.33 148.085 127.33 148.575C128.33 149.065 129.22 149.87 130 150.99C130.88 149.87 131.79 149.065 132.73 148.575C133.67 148.085 134.66 147.84 135.7 147.84C137.48 147.84 138.975 148.445 140.185 149.655C141.395 150.865 142 152.37 142 154.17C142 156.45 141.09 158.635 139.27 160.725C137.45 162.815 135.3 165.01 132.82 167.31L131.23 168.78C131.07 168.94 130.88 169.06 130.66 169.14C130.44 169.22 130.22 169.26 130 169.26Z" fill="url(#paint5_linear_6_245)"/>
<path d="M130 209.68C129.78 209.68 129.56 209.64 129.34 209.56C129.12 209.48 128.93 209.36 128.77 209.2L127.18 207.73C124.7 205.43 122.55 203.235 120.73 201.145C118.91 199.055 118 196.87 118 194.59C118 192.79 118.605 191.285 119.815 190.075C121.025 188.865 122.52 188.26 124.3 188.26C125.32 188.26 126.33 188.505 127.33 188.995C128.33 189.485 129.22 190.29 130 191.41C130.88 190.29 131.79 189.485 132.73 188.995C133.67 188.505 134.66 188.26 135.7 188.26C137.48 188.26 138.975 188.865 140.185 190.075C141.395 191.285 142 192.79 142 194.59C142 196.87 141.09 199.055 139.27 201.145C137.45 203.235 135.3 205.43 132.82 207.73L131.23 209.2C131.07 209.36 130.88 209.48 130.66 209.56C130.44 209.64 130.22 209.68 130 209.68Z" fill="#1C1D1F"/>
<path d="M130 209.68C129.78 209.68 129.56 209.64 129.34 209.56C129.12 209.48 128.93 209.36 128.77 209.2L127.18 207.73C124.7 205.43 122.55 203.235 120.73 201.145C118.91 199.055 118 196.87 118 194.59C118 192.79 118.605 191.285 119.815 190.075C121.025 188.865 122.52 188.26 124.3 188.26C125.32 188.26 126.33 188.505 127.33 188.995C128.33 189.485 129.22 190.29 130 191.41C130.88 190.29 131.79 189.485 132.73 188.995C133.67 188.505 134.66 188.26 135.7 188.26C137.48 188.26 138.975 188.865 140.185 190.075C141.395 191.285 142 192.79 142 194.59C142 196.87 141.09 199.055 139.27 201.145C137.45 203.235 135.3 205.43 132.82 207.73L131.23 209.2C131.07 209.36 130.88 209.48 130.66 209.56C130.44 209.64 130.22 209.68 130 209.68Z" fill="url(#paint6_linear_6_245)"/>
<path d="M52 88.42C51.78 88.42 51.56 88.38 51.34 88.3C51.12 88.22 50.93 88.1 50.77 87.94L49.18 86.47C46.7 84.17 44.55 81.975 42.73 79.885C40.91 77.795 40 75.61 40 73.33C40 71.53 40.605 70.025 41.815 68.815C43.025 67.605 44.52 67 46.3 67C47.32 67 48.33 67.245 49.33 67.735C50.33 68.225 51.22 69.03 52 70.15C52.88 69.03 53.79 68.225 54.73 67.735C55.67 67.245 56.66 67 57.7 67C59.48 67 60.975 67.605 62.185 68.815C63.395 70.025 64 71.53 64 73.33C64 75.61 63.09 77.795 61.27 79.885C59.45 81.975 57.3 84.17 54.82 86.47L53.23 87.94C53.07 88.1 52.88 88.22 52.66 88.3C52.44 88.38 52.22 88.42 52 88.42Z" fill="#1C1D1F"/>
<path d="M52 88.42C51.78 88.42 51.56 88.38 51.34 88.3C51.12 88.22 50.93 88.1 50.77 87.94L49.18 86.47C46.7 84.17 44.55 81.975 42.73 79.885C40.91 77.795 40 75.61 40 73.33C40 71.53 40.605 70.025 41.815 68.815C43.025 67.605 44.52 67 46.3 67C47.32 67 48.33 67.245 49.33 67.735C50.33 68.225 51.22 69.03 52 70.15C52.88 69.03 53.79 68.225 54.73 67.735C55.67 67.245 56.66 67 57.7 67C59.48 67 60.975 67.605 62.185 68.815C63.395 70.025 64 71.53 64 73.33C64 75.61 63.09 77.795 61.27 79.885C59.45 81.975 57.3 84.17 54.82 86.47L53.23 87.94C53.07 88.1 52.88 88.22 52.66 88.3C52.44 88.38 52.22 88.42 52 88.42Z" fill="url(#paint7_linear_6_245)"/>
<path d="M52 128.84C51.78 128.84 51.56 128.8 51.34 128.72C51.12 128.64 50.93 128.52 50.77 128.36L49.18 126.89C46.7 124.59 44.55 122.395 42.73 120.305C40.91 118.215 40 116.03 40 113.75C40 111.95 40.605 110.445 41.815 109.235C43.025 108.025 44.52 107.42 46.3 107.42C47.32 107.42 48.33 107.665 49.33 108.155C50.33 108.645 51.22 109.45 52 110.57C52.88 109.45 53.79 108.645 54.73 108.155C55.67 107.665 56.66 107.42 57.7 107.42C59.48 107.42 60.975 108.025 62.185 109.235C63.395 110.445 64 111.95 64 113.75C64 116.03 63.09 118.215 61.27 120.305C59.45 122.395 57.3 124.59 54.82 126.89L53.23 128.36C53.07 128.52 52.88 128.64 52.66 128.72C52.44 128.8 52.22 128.84 52 128.84Z" fill="#1C1D1F"/>
<path d="M52 128.84C51.78 128.84 51.56 128.8 51.34 128.72C51.12 128.64 50.93 128.52 50.77 128.36L49.18 126.89C46.7 124.59 44.55 122.395 42.73 120.305C40.91 118.215 40 116.03 40 113.75C40 111.95 40.605 110.445 41.815 109.235C43.025 108.025 44.52 107.42 46.3 107.42C47.32 107.42 48.33 107.665 49.33 108.155C50.33 108.645 51.22 109.45 52 110.57C52.88 109.45 53.79 108.645 54.73 108.155C55.67 107.665 56.66 107.42 57.7 107.42C59.48 107.42 60.975 108.025 62.185 109.235C63.395 110.445 64 111.95 64 113.75C64 116.03 63.09 118.215 61.27 120.305C59.45 122.395 57.3 124.59 54.82 126.89L53.23 128.36C53.07 128.52 52.88 128.64 52.66 128.72C52.44 128.8 52.22 128.84 52 128.84Z" fill="url(#paint8_linear_6_245)"/>
<path d="M52 169.26C51.78 169.26 51.56 169.22 51.34 169.14C51.12 169.06 50.93 168.94 50.77 168.78L49.18 167.31C46.7 165.01 44.55 162.815 42.73 160.725C40.91 158.635 40 156.45 40 154.17C40 152.37 40.605 150.865 41.815 149.655C43.025 148.445 44.52 147.84 46.3 147.84C47.32 147.84 48.33 148.085 49.33 148.575C50.33 149.065 51.22 149.87 52 150.99C52.88 149.87 53.79 149.065 54.73 148.575C55.67 148.085 56.66 147.84 57.7 147.84C59.48 147.84 60.975 148.445 62.185 149.655C63.395 150.865 64 152.37 64 154.17C64 156.45 63.09 158.635 61.27 160.725C59.45 162.815 57.3 165.01 54.82 167.31L53.23 168.78C53.07 168.94 52.88 169.06 52.66 169.14C52.44 169.22 52.22 169.26 52 169.26Z" fill="#1C1D1F"/>
<path d="M52 169.26C51.78 169.26 51.56 169.22 51.34 169.14C51.12 169.06 50.93 168.94 50.77 168.78L49.18 167.31C46.7 165.01 44.55 162.815 42.73 160.725C40.91 158.635 40 156.45 40 154.17C40 152.37 40.605 150.865 41.815 149.655C43.025 148.445 44.52 147.84 46.3 147.84C47.32 147.84 48.33 148.085 49.33 148.575C50.33 149.065 51.22 149.87 52 150.99C52.88 149.87 53.79 149.065 54.73 148.575C55.67 148.085 56.66 147.84 57.7 147.84C59.48 147.84 60.975 148.445 62.185 149.655C63.395 150.865 64 152.37 64 154.17C64 156.45 63.09 158.635 61.27 160.725C59.45 162.815 57.3 165.01 54.82 167.31L53.23 168.78C53.07 168.94 52.88 169.06 52.66 169.14C52.44 169.22 52.22 169.26 52 169.26Z" fill="url(#paint9_linear_6_245)"/>
<path d="M52 209.68C51.78 209.68 51.56 209.64 51.34 209.56C51.12 209.48 50.93 209.36 50.77 209.2L49.18 207.73C46.7 205.43 44.55 203.235 42.73 201.145C40.91 199.055 40 196.87 40 194.59C40 192.79 40.605 191.285 41.815 190.075C43.025 188.865 44.52 188.26 46.3 188.26C47.32 188.26 48.33 188.505 49.33 188.995C50.33 189.485 51.22 190.29 52 191.41C52.88 190.29 53.79 189.485 54.73 188.995C55.67 188.505 56.66 188.26 57.7 188.26C59.48 188.26 60.975 188.865 62.185 190.075C63.395 191.285 64 192.79 64 194.59C64 196.87 63.09 199.055 61.27 201.145C59.45 203.235 57.3 205.43 54.82 207.73L53.23 209.2C53.07 209.36 52.88 209.48 52.66 209.56C52.44 209.64 52.22 209.68 52 209.68Z" fill="#1C1D1F"/>
<path d="M52 209.68C51.78 209.68 51.56 209.64 51.34 209.56C51.12 209.48 50.93 209.36 50.77 209.2L49.18 207.73C46.7 205.43 44.55 203.235 42.73 201.145C40.91 199.055 40 196.87 40 194.59C40 192.79 40.605 191.285 41.815 190.075C43.025 188.865 44.52 188.26 46.3 188.26C47.32 188.26 48.33 188.505 49.33 188.995C50.33 189.485 51.22 190.29 52 191.41C52.88 190.29 53.79 189.485 54.73 188.995C55.67 188.505 56.66 188.26 57.7 188.26C59.48 188.26 60.975 188.865 62.185 190.075C63.395 191.285 64 192.79 64 194.59C64 196.87 63.09 199.055 61.27 201.145C59.45 203.235 57.3 205.43 54.82 207.73L53.23 209.2C53.07 209.36 52.88 209.48 52.66 209.56C52.44 209.64 52.22 209.68 52 209.68Z" fill="url(#paint10_linear_6_245)"/>
<defs>
<linearGradient id="paint0_linear_6_245" x1="183" y1="-4.87973e-07" x2="-1.03557e-05" y2="256" gradientUnits="userSpaceOnUse">
<stop stop-color="white"/>
<stop offset="1" stop-color="#E6EFFF"/>
</linearGradient>
<linearGradient id="paint1_linear_6_245" x1="91" y1="87" x2="91" y2="108.42" gradientUnits="userSpaceOnUse">
<stop stop-color="#382F1D"/>
<stop offset="1" stop-color="#382F1D" stop-opacity="0"/>
</linearGradient>
<linearGradient id="paint2_linear_6_245" x1="91" y1="168" x2="91" y2="189.42" gradientUnits="userSpaceOnUse">
<stop stop-color="#382F1D"/>
<stop offset="1" stop-color="#382F1D" stop-opacity="0"/>
</linearGradient>
<linearGradient id="paint3_linear_6_245" x1="130" y1="67" x2="130" y2="88.42" gradientUnits="userSpaceOnUse">
<stop stop-color="#382F1D"/>
<stop offset="1" stop-color="#382F1D" stop-opacity="0"/>
</linearGradient>
<linearGradient id="paint4_linear_6_245" x1="130" y1="107.42" x2="130" y2="128.84" gradientUnits="userSpaceOnUse">
<stop stop-color="#382F1D"/>
<stop offset="1" stop-color="#382F1D" stop-opacity="0"/>
</linearGradient>
<linearGradient id="paint5_linear_6_245" x1="130" y1="147.84" x2="130" y2="169.26" gradientUnits="userSpaceOnUse">
<stop stop-color="#382F1D"/>
<stop offset="1" stop-color="#382F1D" stop-opacity="0"/>
</linearGradient>
<linearGradient id="paint6_linear_6_245" x1="130" y1="188.26" x2="130" y2="209.68" gradientUnits="userSpaceOnUse">
<stop stop-color="#382F1D"/>
<stop offset="1" stop-color="#382F1D" stop-opacity="0"/>
</linearGradient>
<linearGradient id="paint7_linear_6_245" x1="52" y1="67" x2="52" y2="88.42" gradientUnits="userSpaceOnUse">
<stop stop-color="#382F1D"/>
<stop offset="1" stop-color="#382F1D" stop-opacity="0"/>
</linearGradient>
<linearGradient id="paint8_linear_6_245" x1="52" y1="107.42" x2="52" y2="128.84" gradientUnits="userSpaceOnUse">
<stop stop-color="#382F1D"/>
<stop offset="1" stop-color="#382F1D" stop-opacity="0"/>
</linearGradient>
<linearGradient id="paint9_linear_6_245" x1="52" y1="147.84" x2="52" y2="169.26" gradientUnits="userSpaceOnUse">
<stop stop-color="#382F1D"/>
<stop offset="1" stop-color="#382F1D" stop-opacity="0"/>
</linearGradient>
<linearGradient id="paint10_linear_6_245" x1="52" y1="188.26" x2="52" y2="209.68" gradientUnits="userSpaceOnUse">
<stop stop-color="#382F1D"/>
<stop offset="1" stop-color="#382F1D" stop-opacity="0"/>
</linearGradient>
</defs>
</svg>
