<svg width="183" height="256" viewBox="0 0 183 256" fill="none" xmlns="http://www.w3.org/2000/svg">
<rect width="182.857" height="256" rx="16" fill="url(#paint0_linear_6_241)"/>
<path d="M21.248 38.616C21.9733 38.04 22.304 37.7733 22.24 37.816C24.3307 36.088 25.9733 34.6693 27.168 33.56C28.384 32.4507 29.408 31.288 30.24 30.072C31.072 28.856 31.488 27.672 31.488 26.52C31.488 25.6453 31.2853 24.9627 30.88 24.472C30.4747 23.9813 29.8667 23.736 29.056 23.736C28.2453 23.736 27.6053 24.0453 27.136 24.664C26.688 25.2613 26.464 26.1147 26.464 27.224H21.184C21.2267 25.4107 21.6107 23.896 22.336 22.68C23.0827 21.464 24.0533 20.568 25.248 19.992C26.464 19.416 27.808 19.128 29.28 19.128C31.8187 19.128 33.728 19.7787 35.008 21.08C36.3093 22.3813 36.96 24.0773 36.96 26.168C36.96 28.4507 36.1813 30.5733 34.624 32.536C33.0667 34.4773 31.0827 36.376 28.672 38.232H37.312V42.68H21.248V38.616Z" fill="#1C1D1F"/>
<path d="M91 91.42C90.78 91.42 90.56 91.38 90.34 91.3C90.12 91.22 89.93 91.1 89.77 90.94L88.18 89.47C85.7 87.17 83.55 84.975 81.73 82.885C79.91 80.795 79 78.61 79 76.33C79 74.53 79.605 73.025 80.815 71.815C82.025 70.605 83.52 70 85.3 70C86.32 70 87.33 70.245 88.33 70.735C89.33 71.225 90.22 72.03 91 73.15C91.88 72.03 92.79 71.225 93.73 70.735C94.67 70.245 95.66 70 96.7 70C98.48 70 99.975 70.605 101.185 71.815C102.395 73.025 103 74.53 103 76.33C103 78.61 102.09 80.795 100.27 82.885C98.45 84.975 96.3 87.17 93.82 89.47L92.23 90.94C92.07 91.1 91.88 91.22 91.66 91.3C91.44 91.38 91.22 91.42 91 91.42Z" fill="#1C1D1F"/>
<path d="M91 91.42C90.78 91.42 90.56 91.38 90.34 91.3C90.12 91.22 89.93 91.1 89.77 90.94L88.18 89.47C85.7 87.17 83.55 84.975 81.73 82.885C79.91 80.795 79 78.61 79 76.33C79 74.53 79.605 73.025 80.815 71.815C82.025 70.605 83.52 70 85.3 70C86.32 70 87.33 70.245 88.33 70.735C89.33 71.225 90.22 72.03 91 73.15C91.88 72.03 92.79 71.225 93.73 70.735C94.67 70.245 95.66 70 96.7 70C98.48 70 99.975 70.605 101.185 71.815C102.395 73.025 103 74.53 103 76.33C103 78.61 102.09 80.795 100.27 82.885C98.45 84.975 96.3 87.17 93.82 89.47L92.23 90.94C92.07 91.1 91.88 91.22 91.66 91.3C91.44 91.38 91.22 91.42 91 91.42Z" fill="url(#paint1_linear_6_241)"/>
<path d="M91 209.42C90.78 209.42 90.56 209.38 90.34 209.3C90.12 209.22 89.93 209.1 89.77 208.94L88.18 207.47C85.7 205.17 83.55 202.975 81.73 200.885C79.91 198.795 79 196.61 79 194.33C79 192.53 79.605 191.025 80.815 189.815C82.025 188.605 83.52 188 85.3 188C86.32 188 87.33 188.245 88.33 188.735C89.33 189.225 90.22 190.03 91 191.15C91.88 190.03 92.79 189.225 93.73 188.735C94.67 188.245 95.66 188 96.7 188C98.48 188 99.975 188.605 101.185 189.815C102.395 191.025 103 192.53 103 194.33C103 196.61 102.09 198.795 100.27 200.885C98.45 202.975 96.3 205.17 93.82 207.47L92.23 208.94C92.07 209.1 91.88 209.22 91.66 209.3C91.44 209.38 91.22 209.42 91 209.42Z" fill="#1C1D1F"/>
<path d="M91 209.42C90.78 209.42 90.56 209.38 90.34 209.3C90.12 209.22 89.93 209.1 89.77 208.94L88.18 207.47C85.7 205.17 83.55 202.975 81.73 200.885C79.91 198.795 79 196.61 79 194.33C79 192.53 79.605 191.025 80.815 189.815C82.025 188.605 83.52 188 85.3 188C86.32 188 87.33 188.245 88.33 188.735C89.33 189.225 90.22 190.03 91 191.15C91.88 190.03 92.79 189.225 93.73 188.735C94.67 188.245 95.66 188 96.7 188C98.48 188 99.975 188.605 101.185 189.815C102.395 191.025 103 192.53 103 194.33C103 196.61 102.09 198.795 100.27 200.885C98.45 202.975 96.3 205.17 93.82 207.47L92.23 208.94C92.07 209.1 91.88 209.22 91.66 209.3C91.44 209.38 91.22 209.42 91 209.42Z" fill="url(#paint2_linear_6_241)"/>
<defs>
<linearGradient id="paint0_linear_6_241" x1="183" y1="-4.87973e-07" x2="-1.03557e-05" y2="256" gradientUnits="userSpaceOnUse">
<stop stop-color="white"/>
<stop offset="1" stop-color="#E6EFFF"/>
</linearGradient>
<linearGradient id="paint1_linear_6_241" x1="91" y1="70" x2="91" y2="91.42" gradientUnits="userSpaceOnUse">
<stop stop-color="#382F1D"/>
<stop offset="1" stop-color="#382F1D" stop-opacity="0"/>
</linearGradient>
<linearGradient id="paint2_linear_6_241" x1="91" y1="188" x2="91" y2="209.42" gradientUnits="userSpaceOnUse">
<stop stop-color="#382F1D"/>
<stop offset="1" stop-color="#382F1D" stop-opacity="0"/>
</linearGradient>
</defs>
</svg>
