<svg width="183" height="256" viewBox="0 0 183 256" fill="none" xmlns="http://www.w3.org/2000/svg">
<rect width="182.857" height="256" rx="16" fill="url(#paint0_linear_6_242)"/>
<path d="M21.632 26.232C21.7173 23.9493 22.464 22.1893 23.872 20.952C25.28 19.7147 27.1893 19.096 29.6 19.096C31.2 19.096 32.5653 19.3733 33.696 19.928C34.848 20.4827 35.712 21.24 36.288 22.2C36.8853 23.16 37.184 24.2373 37.184 25.432C37.184 26.84 36.832 27.992 36.128 28.888C35.424 29.7627 34.6027 30.36 33.664 30.68V30.808C34.88 31.2133 35.84 31.8853 36.544 32.824C37.248 33.7627 37.6 34.968 37.6 36.44C37.6 37.7627 37.2907 38.936 36.672 39.96C36.0747 40.9627 35.1893 41.752 34.016 42.328C32.864 42.904 31.488 43.192 29.888 43.192C27.328 43.192 25.28 42.5627 23.744 41.304C22.2293 40.0453 21.4293 38.1467 21.344 35.608H26.656C26.6773 36.5467 26.944 37.2933 27.456 37.848C27.968 38.3813 28.7147 38.648 29.696 38.648C30.528 38.648 31.168 38.4133 31.616 37.944C32.0853 37.4533 32.32 36.8133 32.32 36.024C32.32 35 31.9893 34.264 31.328 33.816C30.688 33.3467 29.6533 33.112 28.224 33.112H27.2V28.664H28.224C29.312 28.664 30.1867 28.4827 30.848 28.12C31.5307 27.736 31.872 27.064 31.872 26.104C31.872 25.336 31.6587 24.7387 31.232 24.312C30.8053 23.8853 30.2187 23.672 29.472 23.672C28.6613 23.672 28.0533 23.9173 27.648 24.408C27.264 24.8987 27.04 25.5067 26.976 26.232H21.632Z" fill="#1C1D1F"/>
<path d="M91 88.42C90.78 88.42 90.56 88.38 90.34 88.3C90.12 88.22 89.93 88.1 89.77 87.94L88.18 86.47C85.7 84.17 83.55 81.975 81.73 79.885C79.91 77.795 79 75.61 79 73.33C79 71.53 79.605 70.025 80.815 68.815C82.025 67.605 83.52 67 85.3 67C86.32 67 87.33 67.245 88.33 67.735C89.33 68.225 90.22 69.03 91 70.15C91.88 69.03 92.79 68.225 93.73 67.735C94.67 67.245 95.66 67 96.7 67C98.48 67 99.975 67.605 101.185 68.815C102.395 70.025 103 71.53 103 73.33C103 75.61 102.09 77.795 100.27 79.885C98.45 81.975 96.3 84.17 93.82 86.47L92.23 87.94C92.07 88.1 91.88 88.22 91.66 88.3C91.44 88.38 91.22 88.42 91 88.42Z" fill="#1C1D1F"/>
<path d="M91 88.42C90.78 88.42 90.56 88.38 90.34 88.3C90.12 88.22 89.93 88.1 89.77 87.94L88.18 86.47C85.7 84.17 83.55 81.975 81.73 79.885C79.91 77.795 79 75.61 79 73.33C79 71.53 79.605 70.025 80.815 68.815C82.025 67.605 83.52 67 85.3 67C86.32 67 87.33 67.245 88.33 67.735C89.33 68.225 90.22 69.03 91 70.15C91.88 69.03 92.79 68.225 93.73 67.735C94.67 67.245 95.66 67 96.7 67C98.48 67 99.975 67.605 101.185 68.815C102.395 70.025 103 71.53 103 73.33C103 75.61 102.09 77.795 100.27 79.885C98.45 81.975 96.3 84.17 93.82 86.47L92.23 87.94C92.07 88.1 91.88 88.22 91.66 88.3C91.44 88.38 91.22 88.42 91 88.42Z" fill="url(#paint1_linear_6_242)"/>
<path d="M91 149.42C90.78 149.42 90.56 149.38 90.34 149.3C90.12 149.22 89.93 149.1 89.77 148.94L88.18 147.47C85.7 145.17 83.55 142.975 81.73 140.885C79.91 138.795 79 136.61 79 134.33C79 132.53 79.605 131.025 80.815 129.815C82.025 128.605 83.52 128 85.3 128C86.32 128 87.33 128.245 88.33 128.735C89.33 129.225 90.22 130.03 91 131.15C91.88 130.03 92.79 129.225 93.73 128.735C94.67 128.245 95.66 128 96.7 128C98.48 128 99.975 128.605 101.185 129.815C102.395 131.025 103 132.53 103 134.33C103 136.61 102.09 138.795 100.27 140.885C98.45 142.975 96.3 145.17 93.82 147.47L92.23 148.94C92.07 149.1 91.88 149.22 91.66 149.3C91.44 149.38 91.22 149.42 91 149.42Z" fill="#1C1D1F"/>
<path d="M91 149.42C90.78 149.42 90.56 149.38 90.34 149.3C90.12 149.22 89.93 149.1 89.77 148.94L88.18 147.47C85.7 145.17 83.55 142.975 81.73 140.885C79.91 138.795 79 136.61 79 134.33C79 132.53 79.605 131.025 80.815 129.815C82.025 128.605 83.52 128 85.3 128C86.32 128 87.33 128.245 88.33 128.735C89.33 129.225 90.22 130.03 91 131.15C91.88 130.03 92.79 129.225 93.73 128.735C94.67 128.245 95.66 128 96.7 128C98.48 128 99.975 128.605 101.185 129.815C102.395 131.025 103 132.53 103 134.33C103 136.61 102.09 138.795 100.27 140.885C98.45 142.975 96.3 145.17 93.82 147.47L92.23 148.94C92.07 149.1 91.88 149.22 91.66 149.3C91.44 149.38 91.22 149.42 91 149.42Z" fill="url(#paint2_linear_6_242)"/>
<path d="M91 209.42C90.78 209.42 90.56 209.38 90.34 209.3C90.12 209.22 89.93 209.1 89.77 208.94L88.18 207.47C85.7 205.17 83.55 202.975 81.73 200.885C79.91 198.795 79 196.61 79 194.33C79 192.53 79.605 191.025 80.815 189.815C82.025 188.605 83.52 188 85.3 188C86.32 188 87.33 188.245 88.33 188.735C89.33 189.225 90.22 190.03 91 191.15C91.88 190.03 92.79 189.225 93.73 188.735C94.67 188.245 95.66 188 96.7 188C98.48 188 99.975 188.605 101.185 189.815C102.395 191.025 103 192.53 103 194.33C103 196.61 102.09 198.795 100.27 200.885C98.45 202.975 96.3 205.17 93.82 207.47L92.23 208.94C92.07 209.1 91.88 209.22 91.66 209.3C91.44 209.38 91.22 209.42 91 209.42Z" fill="#1C1D1F"/>
<path d="M91 209.42C90.78 209.42 90.56 209.38 90.34 209.3C90.12 209.22 89.93 209.1 89.77 208.94L88.18 207.47C85.7 205.17 83.55 202.975 81.73 200.885C79.91 198.795 79 196.61 79 194.33C79 192.53 79.605 191.025 80.815 189.815C82.025 188.605 83.52 188 85.3 188C86.32 188 87.33 188.245 88.33 188.735C89.33 189.225 90.22 190.03 91 191.15C91.88 190.03 92.79 189.225 93.73 188.735C94.67 188.245 95.66 188 96.7 188C98.48 188 99.975 188.605 101.185 189.815C102.395 191.025 103 192.53 103 194.33C103 196.61 102.09 198.795 100.27 200.885C98.45 202.975 96.3 205.17 93.82 207.47L92.23 208.94C92.07 209.1 91.88 209.22 91.66 209.3C91.44 209.38 91.22 209.42 91 209.42Z" fill="url(#paint3_linear_6_242)"/>
<defs>
<linearGradient id="paint0_linear_6_242" x1="183" y1="-4.87973e-07" x2="-1.03557e-05" y2="256" gradientUnits="userSpaceOnUse">
<stop stop-color="white"/>
<stop offset="1" stop-color="#E6EFFF"/>
</linearGradient>
<linearGradient id="paint1_linear_6_242" x1="91" y1="67" x2="91" y2="88.42" gradientUnits="userSpaceOnUse">
<stop stop-color="#382F1D"/>
<stop offset="1" stop-color="#382F1D" stop-opacity="0"/>
</linearGradient>
<linearGradient id="paint2_linear_6_242" x1="91" y1="128" x2="91" y2="149.42" gradientUnits="userSpaceOnUse">
<stop stop-color="#382F1D"/>
<stop offset="1" stop-color="#382F1D" stop-opacity="0"/>
</linearGradient>
<linearGradient id="paint3_linear_6_242" x1="91" y1="188" x2="91" y2="209.42" gradientUnits="userSpaceOnUse">
<stop stop-color="#382F1D"/>
<stop offset="1" stop-color="#382F1D" stop-opacity="0"/>
</linearGradient>
</defs>
</svg>
