<svg width="183" height="256" viewBox="0 0 183 256" fill="none" xmlns="http://www.w3.org/2000/svg">
<rect width="182.857" height="256" rx="16" fill="url(#paint0_linear_6_243)"/>
<path d="M21.568 38.84V34.424L31.68 19.96H37.792V34.104H40.416V38.84H37.792V43H32.32V38.84H21.568ZM32.704 25.976L27.328 34.104H32.704V25.976Z" fill="#1C1D1F"/>
<path d="M130 88.42C129.78 88.42 129.56 88.38 129.34 88.3C129.12 88.22 128.93 88.1 128.77 87.94L127.18 86.47C124.7 84.17 122.55 81.975 120.73 79.885C118.91 77.795 118 75.61 118 73.33C118 71.53 118.605 70.025 119.815 68.815C121.025 67.605 122.52 67 124.3 67C125.32 67 126.33 67.245 127.33 67.735C128.33 68.225 129.22 69.03 130 70.15C130.88 69.03 131.79 68.225 132.73 67.735C133.67 67.245 134.66 67 135.7 67C137.48 67 138.975 67.605 140.185 68.815C141.395 70.025 142 71.53 142 73.33C142 75.61 141.09 77.795 139.27 79.885C137.45 81.975 135.3 84.17 132.82 86.47L131.23 87.94C131.07 88.1 130.88 88.22 130.66 88.3C130.44 88.38 130.22 88.42 130 88.42Z" fill="#1C1D1F"/>
<path d="M130 88.42C129.78 88.42 129.56 88.38 129.34 88.3C129.12 88.22 128.93 88.1 128.77 87.94L127.18 86.47C124.7 84.17 122.55 81.975 120.73 79.885C118.91 77.795 118 75.61 118 73.33C118 71.53 118.605 70.025 119.815 68.815C121.025 67.605 122.52 67 124.3 67C125.32 67 126.33 67.245 127.33 67.735C128.33 68.225 129.22 69.03 130 70.15C130.88 69.03 131.79 68.225 132.73 67.735C133.67 67.245 134.66 67 135.7 67C137.48 67 138.975 67.605 140.185 68.815C141.395 70.025 142 71.53 142 73.33C142 75.61 141.09 77.795 139.27 79.885C137.45 81.975 135.3 84.17 132.82 86.47L131.23 87.94C131.07 88.1 130.88 88.22 130.66 88.3C130.44 88.38 130.22 88.42 130 88.42Z" fill="url(#paint1_linear_6_243)"/>
<path d="M52 209.42C51.78 209.42 51.56 209.38 51.34 209.3C51.12 209.22 50.93 209.1 50.77 208.94L49.18 207.47C46.7 205.17 44.55 202.975 42.73 200.885C40.91 198.795 40 196.61 40 194.33C40 192.53 40.605 191.025 41.815 189.815C43.025 188.605 44.52 188 46.3 188C47.32 188 48.33 188.245 49.33 188.735C50.33 189.225 51.22 190.03 52 191.15C52.88 190.03 53.79 189.225 54.73 188.735C55.67 188.245 56.66 188 57.7 188C59.48 188 60.975 188.605 62.185 189.815C63.395 191.025 64 192.53 64 194.33C64 196.61 63.09 198.795 61.27 200.885C59.45 202.975 57.3 205.17 54.82 207.47L53.23 208.94C53.07 209.1 52.88 209.22 52.66 209.3C52.44 209.38 52.22 209.42 52 209.42Z" fill="#1C1D1F"/>
<path d="M52 209.42C51.78 209.42 51.56 209.38 51.34 209.3C51.12 209.22 50.93 209.1 50.77 208.94L49.18 207.47C46.7 205.17 44.55 202.975 42.73 200.885C40.91 198.795 40 196.61 40 194.33C40 192.53 40.605 191.025 41.815 189.815C43.025 188.605 44.52 188 46.3 188C47.32 188 48.33 188.245 49.33 188.735C50.33 189.225 51.22 190.03 52 191.15C52.88 190.03 53.79 189.225 54.73 188.735C55.67 188.245 56.66 188 57.7 188C59.48 188 60.975 188.605 62.185 189.815C63.395 191.025 64 192.53 64 194.33C64 196.61 63.09 198.795 61.27 200.885C59.45 202.975 57.3 205.17 54.82 207.47L53.23 208.94C53.07 209.1 52.88 209.22 52.66 209.3C52.44 209.38 52.22 209.42 52 209.42Z" fill="url(#paint2_linear_6_243)"/>
<path d="M130 209.42C129.78 209.42 129.56 209.38 129.34 209.3C129.12 209.22 128.93 209.1 128.77 208.94L127.18 207.47C124.7 205.17 122.55 202.975 120.73 200.885C118.91 198.795 118 196.61 118 194.33C118 192.53 118.605 191.025 119.815 189.815C121.025 188.605 122.52 188 124.3 188C125.32 188 126.33 188.245 127.33 188.735C128.33 189.225 129.22 190.03 130 191.15C130.88 190.03 131.79 189.225 132.73 188.735C133.67 188.245 134.66 188 135.7 188C137.48 188 138.975 188.605 140.185 189.815C141.395 191.025 142 192.53 142 194.33C142 196.61 141.09 198.795 139.27 200.885C137.45 202.975 135.3 205.17 132.82 207.47L131.23 208.94C131.07 209.1 130.88 209.22 130.66 209.3C130.44 209.38 130.22 209.42 130 209.42Z" fill="#1C1D1F"/>
<path d="M130 209.42C129.78 209.42 129.56 209.38 129.34 209.3C129.12 209.22 128.93 209.1 128.77 208.94L127.18 207.47C124.7 205.17 122.55 202.975 120.73 200.885C118.91 198.795 118 196.61 118 194.33C118 192.53 118.605 191.025 119.815 189.815C121.025 188.605 122.52 188 124.3 188C125.32 188 126.33 188.245 127.33 188.735C128.33 189.225 129.22 190.03 130 191.15C130.88 190.03 131.79 189.225 132.73 188.735C133.67 188.245 134.66 188 135.7 188C137.48 188 138.975 188.605 140.185 189.815C141.395 191.025 142 192.53 142 194.33C142 196.61 141.09 198.795 139.27 200.885C137.45 202.975 135.3 205.17 132.82 207.47L131.23 208.94C131.07 209.1 130.88 209.22 130.66 209.3C130.44 209.38 130.22 209.42 130 209.42Z" fill="url(#paint3_linear_6_243)"/>
<path d="M52 88.42C51.78 88.42 51.56 88.38 51.34 88.3C51.12 88.22 50.93 88.1 50.77 87.94L49.18 86.47C46.7 84.17 44.55 81.975 42.73 79.885C40.91 77.795 40 75.61 40 73.33C40 71.53 40.605 70.025 41.815 68.815C43.025 67.605 44.52 67 46.3 67C47.32 67 48.33 67.245 49.33 67.735C50.33 68.225 51.22 69.03 52 70.15C52.88 69.03 53.79 68.225 54.73 67.735C55.67 67.245 56.66 67 57.7 67C59.48 67 60.975 67.605 62.185 68.815C63.395 70.025 64 71.53 64 73.33C64 75.61 63.09 77.795 61.27 79.885C59.45 81.975 57.3 84.17 54.82 86.47L53.23 87.94C53.07 88.1 52.88 88.22 52.66 88.3C52.44 88.38 52.22 88.42 52 88.42Z" fill="#1C1D1F"/>
<path d="M52 88.42C51.78 88.42 51.56 88.38 51.34 88.3C51.12 88.22 50.93 88.1 50.77 87.94L49.18 86.47C46.7 84.17 44.55 81.975 42.73 79.885C40.91 77.795 40 75.61 40 73.33C40 71.53 40.605 70.025 41.815 68.815C43.025 67.605 44.52 67 46.3 67C47.32 67 48.33 67.245 49.33 67.735C50.33 68.225 51.22 69.03 52 70.15C52.88 69.03 53.79 68.225 54.73 67.735C55.67 67.245 56.66 67 57.7 67C59.48 67 60.975 67.605 62.185 68.815C63.395 70.025 64 71.53 64 73.33C64 75.61 63.09 77.795 61.27 79.885C59.45 81.975 57.3 84.17 54.82 86.47L53.23 87.94C53.07 88.1 52.88 88.22 52.66 88.3C52.44 88.38 52.22 88.42 52 88.42Z" fill="url(#paint4_linear_6_243)"/>
<defs>
<linearGradient id="paint0_linear_6_243" x1="183" y1="-4.87973e-07" x2="-1.03557e-05" y2="256" gradientUnits="userSpaceOnUse">
<stop stop-color="white"/>
<stop offset="1" stop-color="#E6EFFF"/>
</linearGradient>
<linearGradient id="paint1_linear_6_243" x1="130" y1="67" x2="130" y2="88.42" gradientUnits="userSpaceOnUse">
<stop stop-color="#382F1D"/>
<stop offset="1" stop-color="#382F1D" stop-opacity="0"/>
</linearGradient>
<linearGradient id="paint2_linear_6_243" x1="52" y1="188" x2="52" y2="209.42" gradientUnits="userSpaceOnUse">
<stop stop-color="#382F1D"/>
<stop offset="1" stop-color="#382F1D" stop-opacity="0"/>
</linearGradient>
<linearGradient id="paint3_linear_6_243" x1="130" y1="188" x2="130" y2="209.42" gradientUnits="userSpaceOnUse">
<stop stop-color="#382F1D"/>
<stop offset="1" stop-color="#382F1D" stop-opacity="0"/>
</linearGradient>
<linearGradient id="paint4_linear_6_243" x1="52" y1="67" x2="52" y2="88.42" gradientUnits="userSpaceOnUse">
<stop stop-color="#382F1D"/>
<stop offset="1" stop-color="#382F1D" stop-opacity="0"/>
</linearGradient>
</defs>
</svg>
