<svg width="183" height="256" viewBox="0 0 183 256" fill="none" xmlns="http://www.w3.org/2000/svg">
<rect width="182.857" height="256" rx="16" fill="url(#paint0_linear_6_249)"/>
<path d="M32.992 25.944C32.8213 25.1547 32.5227 24.568 32.096 24.184C31.6693 23.7787 31.0613 23.576 30.272 23.576C29.056 23.576 28.1813 24.1093 27.648 25.176C27.1147 26.2213 26.8373 27.8853 26.816 30.168C27.2853 29.4213 27.9573 28.8347 28.832 28.408C29.728 27.9813 30.7093 27.768 31.776 27.768C33.8667 27.768 35.5413 28.4293 36.8 29.752C38.08 31.0747 38.72 32.92 38.72 35.288C38.72 36.8453 38.4 38.2107 37.76 39.384C37.1413 40.5573 36.224 41.4747 35.008 42.136C33.8133 42.7973 32.3947 43.128 30.752 43.128C27.4667 43.128 25.184 42.104 23.904 40.056C22.624 37.9867 21.984 35.0213 21.984 31.16C21.984 27.1067 22.656 24.0987 24 22.136C25.3653 20.152 27.5413 19.16 30.528 19.16C32.128 19.16 33.472 19.48 34.56 20.12C35.6693 20.7387 36.5013 21.56 37.056 22.584C37.632 23.608 37.9733 24.728 38.08 25.944H32.992ZM30.464 32.088C29.5467 32.088 28.7787 32.3653 28.16 32.92C27.5627 33.4533 27.264 34.2213 27.264 35.224C27.264 36.248 27.5413 37.048 28.096 37.624C28.672 38.2 29.4827 38.488 30.528 38.488C31.4667 38.488 32.2027 38.2107 32.736 37.656C33.2907 37.08 33.568 36.3013 33.568 35.32C33.568 34.3173 33.3013 33.528 32.768 32.952C32.2347 32.376 31.4667 32.088 30.464 32.088Z" fill="#1C1D1F"/>
<path d="M130 88.42C129.78 88.42 129.56 88.38 129.34 88.3C129.12 88.22 128.93 88.1 128.77 87.94L127.18 86.47C124.7 84.17 122.55 81.975 120.73 79.885C118.91 77.795 118 75.61 118 73.33C118 71.53 118.605 70.025 119.815 68.815C121.025 67.605 122.52 67 124.3 67C125.32 67 126.33 67.245 127.33 67.735C128.33 68.225 129.22 69.03 130 70.15C130.88 69.03 131.79 68.225 132.73 67.735C133.67 67.245 134.66 67 135.7 67C137.48 67 138.975 67.605 140.185 68.815C141.395 70.025 142 71.53 142 73.33C142 75.61 141.09 77.795 139.27 79.885C137.45 81.975 135.3 84.17 132.82 86.47L131.23 87.94C131.07 88.1 130.88 88.22 130.66 88.3C130.44 88.38 130.22 88.42 130 88.42Z" fill="#1C1D1F"/>
<path d="M130 88.42C129.78 88.42 129.56 88.38 129.34 88.3C129.12 88.22 128.93 88.1 128.77 87.94L127.18 86.47C124.7 84.17 122.55 81.975 120.73 79.885C118.91 77.795 118 75.61 118 73.33C118 71.53 118.605 70.025 119.815 68.815C121.025 67.605 122.52 67 124.3 67C125.32 67 126.33 67.245 127.33 67.735C128.33 68.225 129.22 69.03 130 70.15C130.88 69.03 131.79 68.225 132.73 67.735C133.67 67.245 134.66 67 135.7 67C137.48 67 138.975 67.605 140.185 68.815C141.395 70.025 142 71.53 142 73.33C142 75.61 141.09 77.795 139.27 79.885C137.45 81.975 135.3 84.17 132.82 86.47L131.23 87.94C131.07 88.1 130.88 88.22 130.66 88.3C130.44 88.38 130.22 88.42 130 88.42Z" fill="url(#paint1_linear_6_249)"/>
<path d="M52 149.42C51.78 149.42 51.56 149.38 51.34 149.3C51.12 149.22 50.93 149.1 50.77 148.94L49.18 147.47C46.7 145.17 44.55 142.975 42.73 140.885C40.91 138.795 40 136.61 40 134.33C40 132.53 40.605 131.025 41.815 129.815C43.025 128.605 44.52 128 46.3 128C47.32 128 48.33 128.245 49.33 128.735C50.33 129.225 51.22 130.03 52 131.15C52.88 130.03 53.79 129.225 54.73 128.735C55.67 128.245 56.66 128 57.7 128C59.48 128 60.975 128.605 62.185 129.815C63.395 131.025 64 132.53 64 134.33C64 136.61 63.09 138.795 61.27 140.885C59.45 142.975 57.3 145.17 54.82 147.47L53.23 148.94C53.07 149.1 52.88 149.22 52.66 149.3C52.44 149.38 52.22 149.42 52 149.42Z" fill="#1C1D1F"/>
<path d="M52 149.42C51.78 149.42 51.56 149.38 51.34 149.3C51.12 149.22 50.93 149.1 50.77 148.94L49.18 147.47C46.7 145.17 44.55 142.975 42.73 140.885C40.91 138.795 40 136.61 40 134.33C40 132.53 40.605 131.025 41.815 129.815C43.025 128.605 44.52 128 46.3 128C47.32 128 48.33 128.245 49.33 128.735C50.33 129.225 51.22 130.03 52 131.15C52.88 130.03 53.79 129.225 54.73 128.735C55.67 128.245 56.66 128 57.7 128C59.48 128 60.975 128.605 62.185 129.815C63.395 131.025 64 132.53 64 134.33C64 136.61 63.09 138.795 61.27 140.885C59.45 142.975 57.3 145.17 54.82 147.47L53.23 148.94C53.07 149.1 52.88 149.22 52.66 149.3C52.44 149.38 52.22 149.42 52 149.42Z" fill="url(#paint2_linear_6_249)"/>
<path d="M130 149.42C129.78 149.42 129.56 149.38 129.34 149.3C129.12 149.22 128.93 149.1 128.77 148.94L127.18 147.47C124.7 145.17 122.55 142.975 120.73 140.885C118.91 138.795 118 136.61 118 134.33C118 132.53 118.605 131.025 119.815 129.815C121.025 128.605 122.52 128 124.3 128C125.32 128 126.33 128.245 127.33 128.735C128.33 129.225 129.22 130.03 130 131.15C130.88 130.03 131.79 129.225 132.73 128.735C133.67 128.245 134.66 128 135.7 128C137.48 128 138.975 128.605 140.185 129.815C141.395 131.025 142 132.53 142 134.33C142 136.61 141.09 138.795 139.27 140.885C137.45 142.975 135.3 145.17 132.82 147.47L131.23 148.94C131.07 149.1 130.88 149.22 130.66 149.3C130.44 149.38 130.22 149.42 130 149.42Z" fill="#1C1D1F"/>
<path d="M130 149.42C129.78 149.42 129.56 149.38 129.34 149.3C129.12 149.22 128.93 149.1 128.77 148.94L127.18 147.47C124.7 145.17 122.55 142.975 120.73 140.885C118.91 138.795 118 136.61 118 134.33C118 132.53 118.605 131.025 119.815 129.815C121.025 128.605 122.52 128 124.3 128C125.32 128 126.33 128.245 127.33 128.735C128.33 129.225 129.22 130.03 130 131.15C130.88 130.03 131.79 129.225 132.73 128.735C133.67 128.245 134.66 128 135.7 128C137.48 128 138.975 128.605 140.185 129.815C141.395 131.025 142 132.53 142 134.33C142 136.61 141.09 138.795 139.27 140.885C137.45 142.975 135.3 145.17 132.82 147.47L131.23 148.94C131.07 149.1 130.88 149.22 130.66 149.3C130.44 149.38 130.22 149.42 130 149.42Z" fill="url(#paint3_linear_6_249)"/>
<path d="M52 209.42C51.78 209.42 51.56 209.38 51.34 209.3C51.12 209.22 50.93 209.1 50.77 208.94L49.18 207.47C46.7 205.17 44.55 202.975 42.73 200.885C40.91 198.795 40 196.61 40 194.33C40 192.53 40.605 191.025 41.815 189.815C43.025 188.605 44.52 188 46.3 188C47.32 188 48.33 188.245 49.33 188.735C50.33 189.225 51.22 190.03 52 191.15C52.88 190.03 53.79 189.225 54.73 188.735C55.67 188.245 56.66 188 57.7 188C59.48 188 60.975 188.605 62.185 189.815C63.395 191.025 64 192.53 64 194.33C64 196.61 63.09 198.795 61.27 200.885C59.45 202.975 57.3 205.17 54.82 207.47L53.23 208.94C53.07 209.1 52.88 209.22 52.66 209.3C52.44 209.38 52.22 209.42 52 209.42Z" fill="#1C1D1F"/>
<path d="M52 209.42C51.78 209.42 51.56 209.38 51.34 209.3C51.12 209.22 50.93 209.1 50.77 208.94L49.18 207.47C46.7 205.17 44.55 202.975 42.73 200.885C40.91 198.795 40 196.61 40 194.33C40 192.53 40.605 191.025 41.815 189.815C43.025 188.605 44.52 188 46.3 188C47.32 188 48.33 188.245 49.33 188.735C50.33 189.225 51.22 190.03 52 191.15C52.88 190.03 53.79 189.225 54.73 188.735C55.67 188.245 56.66 188 57.7 188C59.48 188 60.975 188.605 62.185 189.815C63.395 191.025 64 192.53 64 194.33C64 196.61 63.09 198.795 61.27 200.885C59.45 202.975 57.3 205.17 54.82 207.47L53.23 208.94C53.07 209.1 52.88 209.22 52.66 209.3C52.44 209.38 52.22 209.42 52 209.42Z" fill="url(#paint4_linear_6_249)"/>
<path d="M130 209.42C129.78 209.42 129.56 209.38 129.34 209.3C129.12 209.22 128.93 209.1 128.77 208.94L127.18 207.47C124.7 205.17 122.55 202.975 120.73 200.885C118.91 198.795 118 196.61 118 194.33C118 192.53 118.605 191.025 119.815 189.815C121.025 188.605 122.52 188 124.3 188C125.32 188 126.33 188.245 127.33 188.735C128.33 189.225 129.22 190.03 130 191.15C130.88 190.03 131.79 189.225 132.73 188.735C133.67 188.245 134.66 188 135.7 188C137.48 188 138.975 188.605 140.185 189.815C141.395 191.025 142 192.53 142 194.33C142 196.61 141.09 198.795 139.27 200.885C137.45 202.975 135.3 205.17 132.82 207.47L131.23 208.94C131.07 209.1 130.88 209.22 130.66 209.3C130.44 209.38 130.22 209.42 130 209.42Z" fill="#1C1D1F"/>
<path d="M130 209.42C129.78 209.42 129.56 209.38 129.34 209.3C129.12 209.22 128.93 209.1 128.77 208.94L127.18 207.47C124.7 205.17 122.55 202.975 120.73 200.885C118.91 198.795 118 196.61 118 194.33C118 192.53 118.605 191.025 119.815 189.815C121.025 188.605 122.52 188 124.3 188C125.32 188 126.33 188.245 127.33 188.735C128.33 189.225 129.22 190.03 130 191.15C130.88 190.03 131.79 189.225 132.73 188.735C133.67 188.245 134.66 188 135.7 188C137.48 188 138.975 188.605 140.185 189.815C141.395 191.025 142 192.53 142 194.33C142 196.61 141.09 198.795 139.27 200.885C137.45 202.975 135.3 205.17 132.82 207.47L131.23 208.94C131.07 209.1 130.88 209.22 130.66 209.3C130.44 209.38 130.22 209.42 130 209.42Z" fill="url(#paint5_linear_6_249)"/>
<path d="M52 88.42C51.78 88.42 51.56 88.38 51.34 88.3C51.12 88.22 50.93 88.1 50.77 87.94L49.18 86.47C46.7 84.17 44.55 81.975 42.73 79.885C40.91 77.795 40 75.61 40 73.33C40 71.53 40.605 70.025 41.815 68.815C43.025 67.605 44.52 67 46.3 67C47.32 67 48.33 67.245 49.33 67.735C50.33 68.225 51.22 69.03 52 70.15C52.88 69.03 53.79 68.225 54.73 67.735C55.67 67.245 56.66 67 57.7 67C59.48 67 60.975 67.605 62.185 68.815C63.395 70.025 64 71.53 64 73.33C64 75.61 63.09 77.795 61.27 79.885C59.45 81.975 57.3 84.17 54.82 86.47L53.23 87.94C53.07 88.1 52.88 88.22 52.66 88.3C52.44 88.38 52.22 88.42 52 88.42Z" fill="#1C1D1F"/>
<path d="M52 88.42C51.78 88.42 51.56 88.38 51.34 88.3C51.12 88.22 50.93 88.1 50.77 87.94L49.18 86.47C46.7 84.17 44.55 81.975 42.73 79.885C40.91 77.795 40 75.61 40 73.33C40 71.53 40.605 70.025 41.815 68.815C43.025 67.605 44.52 67 46.3 67C47.32 67 48.33 67.245 49.33 67.735C50.33 68.225 51.22 69.03 52 70.15C52.88 69.03 53.79 68.225 54.73 67.735C55.67 67.245 56.66 67 57.7 67C59.48 67 60.975 67.605 62.185 68.815C63.395 70.025 64 71.53 64 73.33C64 75.61 63.09 77.795 61.27 79.885C59.45 81.975 57.3 84.17 54.82 86.47L53.23 87.94C53.07 88.1 52.88 88.22 52.66 88.3C52.44 88.38 52.22 88.42 52 88.42Z" fill="url(#paint6_linear_6_249)"/>
<defs>
<linearGradient id="paint0_linear_6_249" x1="183" y1="-4.87973e-07" x2="-1.03557e-05" y2="256" gradientUnits="userSpaceOnUse">
<stop stop-color="white"/>
<stop offset="1" stop-color="#E6EFFF"/>
</linearGradient>
<linearGradient id="paint1_linear_6_249" x1="130" y1="67" x2="130" y2="88.42" gradientUnits="userSpaceOnUse">
<stop stop-color="#382F1D"/>
<stop offset="1" stop-color="#382F1D" stop-opacity="0"/>
</linearGradient>
<linearGradient id="paint2_linear_6_249" x1="52" y1="128" x2="52" y2="149.42" gradientUnits="userSpaceOnUse">
<stop stop-color="#382F1D"/>
<stop offset="1" stop-color="#382F1D" stop-opacity="0"/>
</linearGradient>
<linearGradient id="paint3_linear_6_249" x1="130" y1="128" x2="130" y2="149.42" gradientUnits="userSpaceOnUse">
<stop stop-color="#382F1D"/>
<stop offset="1" stop-color="#382F1D" stop-opacity="0"/>
</linearGradient>
<linearGradient id="paint4_linear_6_249" x1="52" y1="188" x2="52" y2="209.42" gradientUnits="userSpaceOnUse">
<stop stop-color="#382F1D"/>
<stop offset="1" stop-color="#382F1D" stop-opacity="0"/>
</linearGradient>
<linearGradient id="paint5_linear_6_249" x1="130" y1="188" x2="130" y2="209.42" gradientUnits="userSpaceOnUse">
<stop stop-color="#382F1D"/>
<stop offset="1" stop-color="#382F1D" stop-opacity="0"/>
</linearGradient>
<linearGradient id="paint6_linear_6_249" x1="52" y1="67" x2="52" y2="88.42" gradientUnits="userSpaceOnUse">
<stop stop-color="#382F1D"/>
<stop offset="1" stop-color="#382F1D" stop-opacity="0"/>
</linearGradient>
</defs>
</svg>
