<svg width="183" height="256" viewBox="0 0 183 256" fill="none" xmlns="http://www.w3.org/2000/svg">
<rect width="182.857" height="256" rx="16" fill="url(#paint0_linear_6_247)"/>
<path d="M25.28 30.456C23.2747 29.3893 22.272 27.7147 22.272 25.432C22.272 24.28 22.5707 23.2347 23.168 22.296C23.7653 21.336 24.672 20.5787 25.888 20.024C27.104 19.448 28.5973 19.16 30.368 19.16C32.1387 19.16 33.6213 19.448 34.816 20.024C36.032 20.5787 36.9387 21.336 37.536 22.296C38.1333 23.2347 38.432 24.28 38.432 25.432C38.432 26.584 38.1547 27.5867 37.6 28.44C37.0667 29.2933 36.3413 29.9653 35.424 30.456C36.576 31.0107 37.4613 31.7787 38.08 32.76C38.6987 33.72 39.008 34.8507 39.008 36.152C39.008 37.6667 38.624 38.9787 37.856 40.088C37.088 41.176 36.0427 42.008 34.72 42.584C33.4187 43.16 31.968 43.448 30.368 43.448C28.768 43.448 27.3067 43.16 25.984 42.584C24.6827 42.008 23.648 41.176 22.88 40.088C22.112 38.9787 21.728 37.6667 21.728 36.152C21.728 34.8293 22.0373 33.688 22.656 32.728C23.2747 31.7467 24.1493 30.9893 25.28 30.456ZM33.12 26.264C33.12 25.3893 32.864 24.7173 32.352 24.248C31.8613 23.7573 31.2 23.512 30.368 23.512C29.536 23.512 28.864 23.7573 28.352 24.248C27.8613 24.7387 27.616 25.4213 27.616 26.296C27.616 27.128 27.872 27.7893 28.384 28.28C28.896 28.7493 29.5573 28.984 30.368 28.984C31.1787 28.984 31.84 28.7387 32.352 28.248C32.864 27.7573 33.12 27.096 33.12 26.264ZM30.368 32.824C29.3653 32.824 28.5547 33.1013 27.936 33.656C27.3173 34.1893 27.008 34.936 27.008 35.896C27.008 36.792 27.3067 37.528 27.904 38.104C28.5227 38.68 29.344 38.968 30.368 38.968C31.392 38.968 32.192 38.68 32.768 38.104C33.3653 37.528 33.664 36.792 33.664 35.896C33.664 34.9573 33.3547 34.2107 32.736 33.656C32.1387 33.1013 31.3493 32.824 30.368 32.824Z" fill="#1C1D1F"/>
<path d="M130 88.42C129.78 88.42 129.56 88.38 129.34 88.3C129.12 88.22 128.93 88.1 128.77 87.94L127.18 86.47C124.7 84.17 122.55 81.975 120.73 79.885C118.91 77.795 118 75.61 118 73.33C118 71.53 118.605 70.025 119.815 68.815C121.025 67.605 122.52 67 124.3 67C125.32 67 126.33 67.245 127.33 67.735C128.33 68.225 129.22 69.03 130 70.15C130.88 69.03 131.79 68.225 132.73 67.735C133.67 67.245 134.66 67 135.7 67C137.48 67 138.975 67.605 140.185 68.815C141.395 70.025 142 71.53 142 73.33C142 75.61 141.09 77.795 139.27 79.885C137.45 81.975 135.3 84.17 132.82 86.47L131.23 87.94C131.07 88.1 130.88 88.22 130.66 88.3C130.44 88.38 130.22 88.42 130 88.42Z" fill="#1C1D1F"/>
<path d="M130 88.42C129.78 88.42 129.56 88.38 129.34 88.3C129.12 88.22 128.93 88.1 128.77 87.94L127.18 86.47C124.7 84.17 122.55 81.975 120.73 79.885C118.91 77.795 118 75.61 118 73.33C118 71.53 118.605 70.025 119.815 68.815C121.025 67.605 122.52 67 124.3 67C125.32 67 126.33 67.245 127.33 67.735C128.33 68.225 129.22 69.03 130 70.15C130.88 69.03 131.79 68.225 132.73 67.735C133.67 67.245 134.66 67 135.7 67C137.48 67 138.975 67.605 140.185 68.815C141.395 70.025 142 71.53 142 73.33C142 75.61 141.09 77.795 139.27 79.885C137.45 81.975 135.3 84.17 132.82 86.47L131.23 87.94C131.07 88.1 130.88 88.22 130.66 88.3C130.44 88.38 130.22 88.42 130 88.42Z" fill="url(#paint1_linear_6_247)"/>
<path d="M52 149.42C51.78 149.42 51.56 149.38 51.34 149.3C51.12 149.22 50.93 149.1 50.77 148.94L49.18 147.47C46.7 145.17 44.55 142.975 42.73 140.885C40.91 138.795 40 136.61 40 134.33C40 132.53 40.605 131.025 41.815 129.815C43.025 128.605 44.52 128 46.3 128C47.32 128 48.33 128.245 49.33 128.735C50.33 129.225 51.22 130.03 52 131.15C52.88 130.03 53.79 129.225 54.73 128.735C55.67 128.245 56.66 128 57.7 128C59.48 128 60.975 128.605 62.185 129.815C63.395 131.025 64 132.53 64 134.33C64 136.61 63.09 138.795 61.27 140.885C59.45 142.975 57.3 145.17 54.82 147.47L53.23 148.94C53.07 149.1 52.88 149.22 52.66 149.3C52.44 149.38 52.22 149.42 52 149.42Z" fill="#1C1D1F"/>
<path d="M52 149.42C51.78 149.42 51.56 149.38 51.34 149.3C51.12 149.22 50.93 149.1 50.77 148.94L49.18 147.47C46.7 145.17 44.55 142.975 42.73 140.885C40.91 138.795 40 136.61 40 134.33C40 132.53 40.605 131.025 41.815 129.815C43.025 128.605 44.52 128 46.3 128C47.32 128 48.33 128.245 49.33 128.735C50.33 129.225 51.22 130.03 52 131.15C52.88 130.03 53.79 129.225 54.73 128.735C55.67 128.245 56.66 128 57.7 128C59.48 128 60.975 128.605 62.185 129.815C63.395 131.025 64 132.53 64 134.33C64 136.61 63.09 138.795 61.27 140.885C59.45 142.975 57.3 145.17 54.82 147.47L53.23 148.94C53.07 149.1 52.88 149.22 52.66 149.3C52.44 149.38 52.22 149.42 52 149.42Z" fill="url(#paint2_linear_6_247)"/>
<path d="M130 149.42C129.78 149.42 129.56 149.38 129.34 149.3C129.12 149.22 128.93 149.1 128.77 148.94L127.18 147.47C124.7 145.17 122.55 142.975 120.73 140.885C118.91 138.795 118 136.61 118 134.33C118 132.53 118.605 131.025 119.815 129.815C121.025 128.605 122.52 128 124.3 128C125.32 128 126.33 128.245 127.33 128.735C128.33 129.225 129.22 130.03 130 131.15C130.88 130.03 131.79 129.225 132.73 128.735C133.67 128.245 134.66 128 135.7 128C137.48 128 138.975 128.605 140.185 129.815C141.395 131.025 142 132.53 142 134.33C142 136.61 141.09 138.795 139.27 140.885C137.45 142.975 135.3 145.17 132.82 147.47L131.23 148.94C131.07 149.1 130.88 149.22 130.66 149.3C130.44 149.38 130.22 149.42 130 149.42Z" fill="#1C1D1F"/>
<path d="M130 149.42C129.78 149.42 129.56 149.38 129.34 149.3C129.12 149.22 128.93 149.1 128.77 148.94L127.18 147.47C124.7 145.17 122.55 142.975 120.73 140.885C118.91 138.795 118 136.61 118 134.33C118 132.53 118.605 131.025 119.815 129.815C121.025 128.605 122.52 128 124.3 128C125.32 128 126.33 128.245 127.33 128.735C128.33 129.225 129.22 130.03 130 131.15C130.88 130.03 131.79 129.225 132.73 128.735C133.67 128.245 134.66 128 135.7 128C137.48 128 138.975 128.605 140.185 129.815C141.395 131.025 142 132.53 142 134.33C142 136.61 141.09 138.795 139.27 140.885C137.45 142.975 135.3 145.17 132.82 147.47L131.23 148.94C131.07 149.1 130.88 149.22 130.66 149.3C130.44 149.38 130.22 149.42 130 149.42Z" fill="url(#paint3_linear_6_247)"/>
<path d="M91 118.92C90.78 118.92 90.56 118.88 90.34 118.8C90.12 118.72 89.93 118.6 89.77 118.44L88.18 116.97C85.7 114.67 83.55 112.475 81.73 110.385C79.91 108.295 79 106.11 79 103.83C79 102.03 79.605 100.525 80.815 99.315C82.025 98.105 83.52 97.5 85.3 97.5C86.32 97.5 87.33 97.745 88.33 98.235C89.33 98.725 90.22 99.53 91 100.65C91.88 99.53 92.79 98.725 93.73 98.235C94.67 97.745 95.66 97.5 96.7 97.5C98.48 97.5 99.975 98.105 101.185 99.315C102.395 100.525 103 102.03 103 103.83C103 106.11 102.09 108.295 100.27 110.385C98.45 112.475 96.3 114.67 93.82 116.97L92.23 118.44C92.07 118.6 91.88 118.72 91.66 118.8C91.44 118.88 91.22 118.92 91 118.92Z" fill="#1C1D1F"/>
<path d="M91 118.92C90.78 118.92 90.56 118.88 90.34 118.8C90.12 118.72 89.93 118.6 89.77 118.44L88.18 116.97C85.7 114.67 83.55 112.475 81.73 110.385C79.91 108.295 79 106.11 79 103.83C79 102.03 79.605 100.525 80.815 99.315C82.025 98.105 83.52 97.5 85.3 97.5C86.32 97.5 87.33 97.745 88.33 98.235C89.33 98.725 90.22 99.53 91 100.65C91.88 99.53 92.79 98.725 93.73 98.235C94.67 97.745 95.66 97.5 96.7 97.5C98.48 97.5 99.975 98.105 101.185 99.315C102.395 100.525 103 102.03 103 103.83C103 106.11 102.09 108.295 100.27 110.385C98.45 112.475 96.3 114.67 93.82 116.97L92.23 118.44C92.07 118.6 91.88 118.72 91.66 118.8C91.44 118.88 91.22 118.92 91 118.92Z" fill="url(#paint4_linear_6_247)"/>
<path d="M91 179.42C90.78 179.42 90.56 179.38 90.34 179.3C90.12 179.22 89.93 179.1 89.77 178.94L88.18 177.47C85.7 175.17 83.55 172.975 81.73 170.885C79.91 168.795 79 166.61 79 164.33C79 162.53 79.605 161.025 80.815 159.815C82.025 158.605 83.52 158 85.3 158C86.32 158 87.33 158.245 88.33 158.735C89.33 159.225 90.22 160.03 91 161.15C91.88 160.03 92.79 159.225 93.73 158.735C94.67 158.245 95.66 158 96.7 158C98.48 158 99.975 158.605 101.185 159.815C102.395 161.025 103 162.53 103 164.33C103 166.61 102.09 168.795 100.27 170.885C98.45 172.975 96.3 175.17 93.82 177.47L92.23 178.94C92.07 179.1 91.88 179.22 91.66 179.3C91.44 179.38 91.22 179.42 91 179.42Z" fill="#1C1D1F"/>
<path d="M91 179.42C90.78 179.42 90.56 179.38 90.34 179.3C90.12 179.22 89.93 179.1 89.77 178.94L88.18 177.47C85.7 175.17 83.55 172.975 81.73 170.885C79.91 168.795 79 166.61 79 164.33C79 162.53 79.605 161.025 80.815 159.815C82.025 158.605 83.52 158 85.3 158C86.32 158 87.33 158.245 88.33 158.735C89.33 159.225 90.22 160.03 91 161.15C91.88 160.03 92.79 159.225 93.73 158.735C94.67 158.245 95.66 158 96.7 158C98.48 158 99.975 158.605 101.185 159.815C102.395 161.025 103 162.53 103 164.33C103 166.61 102.09 168.795 100.27 170.885C98.45 172.975 96.3 175.17 93.82 177.47L92.23 178.94C92.07 179.1 91.88 179.22 91.66 179.3C91.44 179.38 91.22 179.42 91 179.42Z" fill="url(#paint5_linear_6_247)"/>
<path d="M52 209.42C51.78 209.42 51.56 209.38 51.34 209.3C51.12 209.22 50.93 209.1 50.77 208.94L49.18 207.47C46.7 205.17 44.55 202.975 42.73 200.885C40.91 198.795 40 196.61 40 194.33C40 192.53 40.605 191.025 41.815 189.815C43.025 188.605 44.52 188 46.3 188C47.32 188 48.33 188.245 49.33 188.735C50.33 189.225 51.22 190.03 52 191.15C52.88 190.03 53.79 189.225 54.73 188.735C55.67 188.245 56.66 188 57.7 188C59.48 188 60.975 188.605 62.185 189.815C63.395 191.025 64 192.53 64 194.33C64 196.61 63.09 198.795 61.27 200.885C59.45 202.975 57.3 205.17 54.82 207.47L53.23 208.94C53.07 209.1 52.88 209.22 52.66 209.3C52.44 209.38 52.22 209.42 52 209.42Z" fill="#1C1D1F"/>
<path d="M52 209.42C51.78 209.42 51.56 209.38 51.34 209.3C51.12 209.22 50.93 209.1 50.77 208.94L49.18 207.47C46.7 205.17 44.55 202.975 42.73 200.885C40.91 198.795 40 196.61 40 194.33C40 192.53 40.605 191.025 41.815 189.815C43.025 188.605 44.52 188 46.3 188C47.32 188 48.33 188.245 49.33 188.735C50.33 189.225 51.22 190.03 52 191.15C52.88 190.03 53.79 189.225 54.73 188.735C55.67 188.245 56.66 188 57.7 188C59.48 188 60.975 188.605 62.185 189.815C63.395 191.025 64 192.53 64 194.33C64 196.61 63.09 198.795 61.27 200.885C59.45 202.975 57.3 205.17 54.82 207.47L53.23 208.94C53.07 209.1 52.88 209.22 52.66 209.3C52.44 209.38 52.22 209.42 52 209.42Z" fill="url(#paint6_linear_6_247)"/>
<path d="M130 209.42C129.78 209.42 129.56 209.38 129.34 209.3C129.12 209.22 128.93 209.1 128.77 208.94L127.18 207.47C124.7 205.17 122.55 202.975 120.73 200.885C118.91 198.795 118 196.61 118 194.33C118 192.53 118.605 191.025 119.815 189.815C121.025 188.605 122.52 188 124.3 188C125.32 188 126.33 188.245 127.33 188.735C128.33 189.225 129.22 190.03 130 191.15C130.88 190.03 131.79 189.225 132.73 188.735C133.67 188.245 134.66 188 135.7 188C137.48 188 138.975 188.605 140.185 189.815C141.395 191.025 142 192.53 142 194.33C142 196.61 141.09 198.795 139.27 200.885C137.45 202.975 135.3 205.17 132.82 207.47L131.23 208.94C131.07 209.1 130.88 209.22 130.66 209.3C130.44 209.38 130.22 209.42 130 209.42Z" fill="#1C1D1F"/>
<path d="M130 209.42C129.78 209.42 129.56 209.38 129.34 209.3C129.12 209.22 128.93 209.1 128.77 208.94L127.18 207.47C124.7 205.17 122.55 202.975 120.73 200.885C118.91 198.795 118 196.61 118 194.33C118 192.53 118.605 191.025 119.815 189.815C121.025 188.605 122.52 188 124.3 188C125.32 188 126.33 188.245 127.33 188.735C128.33 189.225 129.22 190.03 130 191.15C130.88 190.03 131.79 189.225 132.73 188.735C133.67 188.245 134.66 188 135.7 188C137.48 188 138.975 188.605 140.185 189.815C141.395 191.025 142 192.53 142 194.33C142 196.61 141.09 198.795 139.27 200.885C137.45 202.975 135.3 205.17 132.82 207.47L131.23 208.94C131.07 209.1 130.88 209.22 130.66 209.3C130.44 209.38 130.22 209.42 130 209.42Z" fill="url(#paint7_linear_6_247)"/>
<path d="M52 88.42C51.78 88.42 51.56 88.38 51.34 88.3C51.12 88.22 50.93 88.1 50.77 87.94L49.18 86.47C46.7 84.17 44.55 81.975 42.73 79.885C40.91 77.795 40 75.61 40 73.33C40 71.53 40.605 70.025 41.815 68.815C43.025 67.605 44.52 67 46.3 67C47.32 67 48.33 67.245 49.33 67.735C50.33 68.225 51.22 69.03 52 70.15C52.88 69.03 53.79 68.225 54.73 67.735C55.67 67.245 56.66 67 57.7 67C59.48 67 60.975 67.605 62.185 68.815C63.395 70.025 64 71.53 64 73.33C64 75.61 63.09 77.795 61.27 79.885C59.45 81.975 57.3 84.17 54.82 86.47L53.23 87.94C53.07 88.1 52.88 88.22 52.66 88.3C52.44 88.38 52.22 88.42 52 88.42Z" fill="#1C1D1F"/>
<path d="M52 88.42C51.78 88.42 51.56 88.38 51.34 88.3C51.12 88.22 50.93 88.1 50.77 87.94L49.18 86.47C46.7 84.17 44.55 81.975 42.73 79.885C40.91 77.795 40 75.61 40 73.33C40 71.53 40.605 70.025 41.815 68.815C43.025 67.605 44.52 67 46.3 67C47.32 67 48.33 67.245 49.33 67.735C50.33 68.225 51.22 69.03 52 70.15C52.88 69.03 53.79 68.225 54.73 67.735C55.67 67.245 56.66 67 57.7 67C59.48 67 60.975 67.605 62.185 68.815C63.395 70.025 64 71.53 64 73.33C64 75.61 63.09 77.795 61.27 79.885C59.45 81.975 57.3 84.17 54.82 86.47L53.23 87.94C53.07 88.1 52.88 88.22 52.66 88.3C52.44 88.38 52.22 88.42 52 88.42Z" fill="url(#paint8_linear_6_247)"/>
<defs>
<linearGradient id="paint0_linear_6_247" x1="183" y1="-4.87973e-07" x2="-1.03557e-05" y2="256" gradientUnits="userSpaceOnUse">
<stop stop-color="white"/>
<stop offset="1" stop-color="#E6EFFF"/>
</linearGradient>
<linearGradient id="paint1_linear_6_247" x1="130" y1="67" x2="130" y2="88.42" gradientUnits="userSpaceOnUse">
<stop stop-color="#382F1D"/>
<stop offset="1" stop-color="#382F1D" stop-opacity="0"/>
</linearGradient>
<linearGradient id="paint2_linear_6_247" x1="52" y1="128" x2="52" y2="149.42" gradientUnits="userSpaceOnUse">
<stop stop-color="#382F1D"/>
<stop offset="1" stop-color="#382F1D" stop-opacity="0"/>
</linearGradient>
<linearGradient id="paint3_linear_6_247" x1="130" y1="128" x2="130" y2="149.42" gradientUnits="userSpaceOnUse">
<stop stop-color="#382F1D"/>
<stop offset="1" stop-color="#382F1D" stop-opacity="0"/>
</linearGradient>
<linearGradient id="paint4_linear_6_247" x1="91" y1="97.5" x2="91" y2="118.92" gradientUnits="userSpaceOnUse">
<stop stop-color="#382F1D"/>
<stop offset="1" stop-color="#382F1D" stop-opacity="0"/>
</linearGradient>
<linearGradient id="paint5_linear_6_247" x1="91" y1="158" x2="91" y2="179.42" gradientUnits="userSpaceOnUse">
<stop stop-color="#382F1D"/>
<stop offset="1" stop-color="#382F1D" stop-opacity="0"/>
</linearGradient>
<linearGradient id="paint6_linear_6_247" x1="52" y1="188" x2="52" y2="209.42" gradientUnits="userSpaceOnUse">
<stop stop-color="#382F1D"/>
<stop offset="1" stop-color="#382F1D" stop-opacity="0"/>
</linearGradient>
<linearGradient id="paint7_linear_6_247" x1="130" y1="188" x2="130" y2="209.42" gradientUnits="userSpaceOnUse">
<stop stop-color="#382F1D"/>
<stop offset="1" stop-color="#382F1D" stop-opacity="0"/>
</linearGradient>
<linearGradient id="paint8_linear_6_247" x1="52" y1="67" x2="52" y2="88.42" gradientUnits="userSpaceOnUse">
<stop stop-color="#382F1D"/>
<stop offset="1" stop-color="#382F1D" stop-opacity="0"/>
</linearGradient>
</defs>
</svg>
